<svg width="44" height="44" viewBox="0 0 44 44" fill="none" xmlns="http://www.w3.org/2000/svg">
    <path d="M29.8853 28.4937V31.9345H2.26785C1.54644 31.9345 0.961548 31.3497 0.961548 30.6282V28.4937H29.8853V28.4937Z" fill="#64798A"/>
    <path d="M17.269 26.8359H0.961548V22.0648C0.961548 21.2421 1.62846 20.5753 2.45107 20.5753H11.5446C11.9971 20.5753 12.4251 20.781 12.7077 21.1344L17.269 26.8359Z" fill="#FCD462"/>
    <path d="M9.56108 23.5535V26.8359H0.961548V22.2231H8.23072C8.96548 22.2231 9.56108 22.8187 9.56108 23.5535Z" fill="#F7BE56"/>
    <g opacity="0.7">
        <path opacity="0.7" d="M29.6044 19.1049H22.4025V26.3021H29.6044V19.1049Z" fill="#3A556A"/>
    </g>
    <path d="M43.9563 21.1192C43.7687 22.1814 42.9307 23.0565 41.8765 23.2849C40.1193 23.6656 38.5558 22.325 38.5558 20.6255C38.5558 20.35 38.7812 20.1247 39.0566 20.1247C39.3321 20.1247 39.5574 20.3501 39.5574 20.6255C39.5574 21.718 40.5738 22.5727 41.7051 22.2958C42.3332 22.1421 42.8351 21.618 42.9621 20.984C43.1035 20.2784 42.8163 19.6314 42.314 19.2522C42.113 19.1005 41.8581 19.0379 41.6062 19.0379C41.0943 19.0379 40.6792 18.6229 40.6792 18.1109V12.3617H41.9414V17.9861C43.2738 18.3191 44.2179 19.6384 43.9563 21.1192Z" fill="#64798A"/>
    <path d="M41.2015 10.684H33.4987V13.4383H41.2015V10.684Z" fill="#3A556A"/>
    <path d="M34.3928 10.5236V13.4685C34.3928 13.8091 34.1174 14.0845 33.7769 14.0845H2.1286V9.90747H33.7769C34.1174 9.90747 34.3928 10.183 34.3928 10.5236Z" fill="#FCD462"/>
    <path d="M1.30594 8.67786C0.70085 8.67786 0.210388 9.16841 0.210388 9.77341V16.0652C0.210388 16.6703 0.700944 17.1608 1.30594 17.1608C1.91094 17.1608 2.40149 16.6702 2.40149 16.0652V9.77341C2.40159 9.16832 1.91103 8.67786 1.30594 8.67786Z" fill="#64798A"/>
    <path d="M42.9031 12.061C42.9031 12.9574 42.1719 13.6837 41.2754 13.6837C40.3789 13.6837 39.6526 12.9575 39.6526 12.061C39.6526 11.1644 40.3789 10.4382 41.2754 10.4382C42.172 10.4382 42.9031 11.1644 42.9031 12.061Z" fill="#64798A"/>
    <path d="M42.9031 16.1931C42.9031 17.0895 42.1719 17.8158 41.2754 17.8158C40.3789 17.8158 39.6526 17.0896 39.6526 16.1931C39.6526 15.2965 40.3789 14.5703 41.2754 14.5703C42.172 14.5703 42.9031 15.2965 42.9031 16.1931Z" fill="#FCD462"/>
    <path d="M26.79 20.7106C26.5446 21.0712 26.1539 21.2616 25.7533 21.2616C25.5078 21.2616 25.2675 21.1915 25.0521 21.0462L17.3542 15.8224H11.6046C10.9134 15.8224 10.3525 15.2615 10.3525 14.5703C10.3525 13.8792 10.9134 13.3182 11.6046 13.3182H17.7398C17.9902 13.3182 18.2357 13.3933 18.4411 13.5336L26.4546 18.9727C27.0304 19.3633 27.1757 20.1397 26.79 20.7106Z" fill="#F7BE56"/>
    <path d="M27.254 19.7027C27.3091 20.8245 26.3224 21.7411 25.2005 21.7411H21.7397C21.2589 21.7411 20.8682 21.3554 20.8682 20.8746V18.726C20.8682 18.2452 21.2589 17.8545 21.7397 17.8545H25.3107C25.8466 17.8545 26.3324 18.0698 26.6829 18.4255C27.0136 18.7561 27.2289 19.2068 27.254 19.7027Z" fill="#64798A"/>
    <path d="M26.3819 19.7984C26.3819 20.4545 25.846 20.9904 25.1899 20.9904C24.5338 20.9904 23.9979 20.4545 23.9979 19.7984C23.9979 19.1423 24.5337 18.6063 25.1899 18.6063C25.846 18.6064 26.3819 19.1423 26.3819 19.7984Z" fill="#3A556A"/>
    <path d="M13.4057 14.5703C13.4057 14.9069 13.1307 15.182 12.794 15.182C12.4574 15.182 12.1824 14.9069 12.1824 14.5703C12.1824 14.2336 12.4574 13.9586 12.794 13.9586C13.1307 13.9586 13.4057 14.2336 13.4057 14.5703Z" fill="#3A556A"/>
    <path d="M7.0344 25.3979C7.0344 25.6784 6.81407 25.8987 6.5336 25.8987H3.36316C3.08768 25.8987 2.86237 25.6784 2.86237 25.3979C2.86237 25.1224 3.08777 24.8971 3.36316 24.8971H6.53351C6.81397 24.8971 7.0344 25.1224 7.0344 25.3979Z" fill="#3A556A"/>
    <path d="M2.86237 23.66C2.86237 23.3845 3.08777 23.1592 3.36316 23.1592H6.5335C6.81397 23.1592 7.0343 23.3846 7.0343 23.66C7.0343 23.9355 6.81397 24.1608 6.5335 24.1608H3.36316C3.08777 24.1608 2.86237 23.9354 2.86237 23.66Z" fill="#3A556A"/>
    <path d="M32.7251 26.8259V28.4236C32.7251 28.8493 32.3795 29.1898 31.9588 29.1898H0.76623C0.345578 29.1898 0 28.8492 0 28.4236V26.8259C0 26.4051 0.345578 26.0596 0.76623 26.0596H31.9588C32.3795 26.0596 32.7251 26.4051 32.7251 26.8259Z" fill="#3A556A"/>
    <path d="M6.32451 35.3183C8.1924 35.3183 9.70663 33.8041 9.70663 31.9362C9.70663 30.0683 8.1924 28.5541 6.32451 28.5541C4.45661 28.5541 2.94238 30.0683 2.94238 31.9362C2.94238 33.8041 4.45661 35.3183 6.32451 35.3183Z" fill="#2F4859"/>
    <path d="M7.82465 31.9345C7.82465 32.7663 7.15284 33.4335 6.32564 33.4335C5.49382 33.4335 4.82202 32.7663 4.82202 31.9345C4.82202 31.1027 5.49382 30.4309 6.32564 30.4309C7.15284 30.4309 7.82465 31.1027 7.82465 31.9345Z" fill="#EBF0F3"/>
    <path d="M14.5482 35.3166C16.4161 35.3166 17.9303 33.8024 17.9303 31.9345C17.9303 30.0666 16.4161 28.5524 14.5482 28.5524C12.6803 28.5524 11.1661 30.0666 11.1661 31.9345C11.1661 33.8024 12.6803 35.3166 14.5482 35.3166Z" fill="#2F4859"/>
    <path d="M16.0467 31.9345C16.0467 32.7663 15.3749 33.4335 14.5477 33.4335C13.7159 33.4335 13.0441 32.7663 13.0441 31.9345C13.0441 31.1027 13.7159 30.4309 14.5477 30.4309C15.3749 30.4309 16.0467 31.1027 16.0467 31.9345Z" fill="#EBF0F3"/>
    <path d="M25.9186 30.0964V31.8744C25.9186 32.3752 25.5129 32.7809 25.0121 32.7809H20.2941C19.7933 32.7809 19.3876 32.3752 19.3876 31.8744V30.0964C19.3876 29.5957 19.7933 29.1899 20.2941 29.1899H25.0121C25.5129 29.1898 25.9186 29.5956 25.9186 30.0964Z" fill="#3A556A"/>
    <path d="M21.947 30.8527C21.947 31.2834 21.5964 31.6341 21.1606 31.6341C20.7299 31.6341 20.3793 31.2835 20.3793 30.8527C20.3793 30.4171 20.7298 30.0664 21.1606 30.0664C21.5963 30.0664 21.947 30.417 21.947 30.8527Z" fill="#D5D6DB"/>
    <path d="M38.8655 27.5236H28.7231V31.5305H38.8655V27.5236Z" fill="#F7BE56"/>
    <path d="M38.8629 26.0189V27.6867H28.7209V15.6265H34.8912L38.4722 25.0022L38.8629 26.0189Z" fill="#FCD462"/>
    <path d="M36.6323 22.3467L34.2073 17.1H30.3806V22.3467H36.6323Z" fill="#27A2DB"/>
    <path d="M31.6175 35.3214C33.4854 35.3214 34.9997 33.8071 34.9997 31.9393C34.9997 30.0714 33.4854 28.5571 31.6175 28.5571C29.7496 28.5571 28.2354 30.0714 28.2354 31.9393C28.2354 33.8071 29.7496 35.3214 31.6175 35.3214Z" fill="#2F4859"/>
    <path d="M33.117 31.9345C33.117 32.7663 32.4452 33.4335 31.618 33.4335C30.7862 33.4335 30.1144 32.7663 30.1144 31.9345C30.1144 31.1027 30.7862 30.4309 31.618 30.4309C32.4452 30.4309 33.117 31.1027 33.117 31.9345Z" fill="#EBF0F3"/>
    <path d="M39.3813 29.8661V31.5589C39.3813 31.9346 39.0757 32.24 38.7002 32.24H37.9289C37.5532 32.24 37.2527 31.9346 37.2527 31.5589V29.8661C37.2527 29.4955 37.5532 29.1899 37.9289 29.1899H38.7002C39.0757 29.1898 39.3813 29.4954 39.3813 29.8661Z" fill="#3A556A"/>
    <path d="M38.8629 26.0189V28.2577H36.4138V25.0022H38.4723L38.8629 26.0189Z" fill="#EBF0F3"/>
</svg>
