<svg width="44" height="44" viewBox="0 0 44 44" fill="none" xmlns="http://www.w3.org/2000/svg">
<path d="M37.8022 16.3942L39.6591 21.2841L38.9126 22.9919L35.1052 17.6448C34.6481 16.9541 34.8347 16.0209 35.5251 15.5544C35.5532 15.5358 35.5904 15.5172 35.6184 15.4986C36.3464 15.0878 37.2609 15.3491 37.6714 16.0771C37.7275 16.1799 37.7742 16.2823 37.8022 16.3942Z" fill="#666666"/>
<path d="M30.1504 2.96616L37.8394 15.9742C38.3154 16.7863 38.0541 17.8314 37.2423 18.3165C37.2048 18.3351 37.1767 18.3537 37.1395 18.3727C36.3649 18.7551 35.4318 18.5127 34.9561 17.7938L26.5668 5.21521C25.9136 4.24451 26.1845 2.92898 27.1548 2.27577C27.1829 2.25682 27.2109 2.23823 27.2386 2.21964C28.2374 1.61309 29.5438 1.93969 30.1409 2.94757C30.1504 2.95668 30.1504 2.95668 30.1504 2.96616Z" fill="#F2C94C"/>
<path d="M6.67206 25.7632H17.1234V32.4819H6.67206C5.85081 32.4819 5.17902 31.8101 5.17902 30.9888V27.2562C5.17902 26.435 5.85081 25.7632 6.67206 25.7632Z" fill="#808080"/>
<path d="M26.8282 32.482H17.1234V19.0446C17.1234 18.2233 17.7952 17.5515 18.6164 17.5515H24.0659C24.7938 17.5515 25.4189 18.0833 25.5403 18.8018L26.8282 26.5098V32.482Z" fill="#F2C94C"/>
<path d="M19.363 29.4958V20.5375C19.363 20.1267 19.6991 19.791 20.1095 19.791H22.8062C23.1703 19.791 23.4874 20.0524 23.5436 20.4162L24.5792 26.6311C24.5886 26.6683 24.5886 26.7149 24.5886 26.7521V29.4958C24.5886 29.9062 24.2526 30.2423 23.8421 30.2423H20.1095C19.6991 30.2423 19.363 29.9062 19.363 29.4958Z" fill="#4EC3C7"/>
<path d="M3.68598 35.468H27.5747C29.2263 35.468 30.5608 36.8025 30.5608 38.4541C30.5608 40.1057 29.2263 41.4402 27.5747 41.4402H3.68598C2.03437 41.4402 0.69989 40.1057 0.69989 38.4541C0.69989 36.8025 2.03437 35.468 3.68598 35.468Z" fill="#666666"/>
<path d="M6.67207 38.4541C6.67207 40.1031 5.33504 41.4402 3.68598 41.4402C2.03692 41.4402 0.69989 40.1031 0.69989 38.4541C0.69989 36.805 2.03692 35.468 3.68598 35.468C5.33504 35.468 6.67207 36.805 6.67207 38.4541Z" fill="#2F7A92"/>
<path d="M30.5608 38.4541C30.5608 40.1031 29.2238 41.4402 27.5747 41.4402C25.9257 41.4402 24.5886 40.1031 24.5886 38.4541C24.5886 36.805 25.9257 35.468 27.5747 35.468C29.2238 35.468 30.5608 36.805 30.5608 38.4541Z" fill="#226C8A"/>
<path d="M2.93945 37.7076H4.4325V39.2007H2.93945V37.7076Z" fill="#213D64"/>
<path d="M26.8282 37.7076H28.3212V39.2007H26.8282V37.7076Z" fill="#213D64"/>
<path d="M20.1094 39.2007H21.6025V40.6937H20.1094V39.2007Z" fill="#0080A4"/>
<path d="M14.8838 39.2007H16.3768V40.6937H14.8838V39.2007Z" fill="#0080A4"/>
<path d="M9.65814 39.2007H11.1512V40.6937H9.65814V39.2007Z" fill="#0080A4"/>
<path d="M17.8699 36.2146H19.3629V37.7076H17.8699V36.2146Z" fill="#0080A4"/>
<path d="M11.8978 36.2146H13.3908V37.7076H11.8978V36.2146Z" fill="#0080A4"/>
<path d="M9.65814 32.4819H21.6025V35.468H9.65814V32.4819Z" fill="#4D4D4D"/>
<path d="M7.41858 25.7632L12.6442 10.8327L27.2015 2.22912C28.2374 1.61309 29.5715 1.95829 30.1875 2.98476C30.8127 4.0207 30.477 5.35519 29.441 5.98033L16.3769 13.8188L13.3908 25.7632H7.41858Z" fill="#F2994A"/>
<path d="M39.659 21.2841L35.6278 30.5128L32.0538 32.0154C33.3602 33.4432 35.2079 34.2549 37.1489 34.2455C40.844 34.3297 43.9143 31.3993 43.9981 27.7042C44.0634 24.8581 42.3185 22.2825 39.659 21.2841Z" fill="#808080"/>
<path d="M7.41858 27.2562H10.4047V28.7493H7.41858V27.2562Z" fill="#F8F8F2"/>
<path d="M7.41858 29.4958H8.91163V30.9889H7.41858V29.4958Z" fill="#F8F8F2"/>
<path d="M19.363 26.5098H24.5886V29.4958C24.5886 29.9063 24.2526 30.2423 23.8421 30.2423H20.1095C19.6991 30.2423 19.363 29.9063 19.363 29.4958V26.5098Z" fill="#177A96"/>
<path d="M27.5747 42.1401H3.68596C1.65161 42.1401 0 40.4885 0 38.4542C0 36.4198 1.65161 34.7682 3.68596 34.7682H27.5747C29.6091 34.7682 31.2607 36.4198 31.2607 38.4542C31.2607 40.4885 29.6091 42.1401 27.5747 42.1401ZM3.68596 36.1679C2.4262 36.1679 1.39973 37.1944 1.39973 38.4542C1.39973 39.7139 2.4262 40.7404 3.68596 40.7404H27.5747C28.8345 40.7404 29.8609 39.7139 29.8609 38.4542C29.8609 37.1944 28.8345 36.1679 27.5747 36.1679H3.68596Z" fill="#29485A"/>
</svg>
