<svg width="44" height="44" viewBox="0 0 44 44" fill="none" xmlns="http://www.w3.org/2000/svg">
<path d="M9.74176 39.3532C8.82041 39.6948 7.17907 37.5654 6.01975 34.5512C4.76281 31.2685 4.54925 28.2664 5.53162 27.9003H5.53772C5.54488 27.8955 5.55353 27.8933 5.56213 27.8942C6.51399 27.5953 8.20415 29.8651 9.35126 32.9952C10.5167 36.1559 10.6875 39.0054 9.74176 39.3532Z" fill="#7F8C8D"/>
<path d="M14.916 37.4005C14.8602 37.4545 14.7937 37.4961 14.7207 37.5226H14.7146L9.74177 39.3531C10.6875 39.0053 10.5167 36.1558 9.35126 32.9951C8.20415 29.865 6.51399 27.5952 5.56213 27.8942L9.91872 26.2833L10.6814 26.0026C11.6272 25.6548 13.354 27.9674 14.5133 31.128C15.5933 34.0507 15.6665 36.7416 14.916 37.4005Z" fill="#464F5D"/>
<path d="M36.0155 12.5486C35.9972 13.5065 35.9423 14.9465 35.8264 16.5757C35.7531 17.5153 35.6677 18.5099 35.5518 19.5166C35.3474 21.7105 34.895 23.8741 34.2033 25.9661C34.1667 26.0698 34.124 26.1736 34.0813 26.2834L33.3186 26.0027C32.3728 25.6549 30.6461 27.9674 29.4867 31.1281C28.4067 34.0508 28.3335 36.7416 29.084 37.4006C28.8949 37.907 28.0834 39.3897 25.0508 39.3897H18.9492C15.9167 39.3897 15.1051 37.907 14.916 37.4006C15.6665 36.7416 15.5933 34.0508 14.5133 31.1281C13.354 27.9674 11.6272 25.6549 10.6814 26.0027L9.91872 26.2834C9.87601 26.1736 9.8333 26.0698 9.79669 25.9661C9.10503 23.8741 8.65265 21.7105 8.44822 19.5166C8.33229 18.5099 8.24687 17.5153 8.17365 16.5757C8.05771 14.9465 8.0028 13.5065 7.98449 12.5486C7.94988 11.36 8.29389 10.1912 8.96686 9.21095C8.98909 9.18602 9.00948 9.15951 9.02788 9.13163C9.99758 7.80851 11.4983 6.97673 13.1343 6.85571C13.6651 6.813 14.1777 6.77639 14.678 6.73978V7.05096C14.68 7.7241 15.2252 8.26928 15.8983 8.27129H16.5085C17.1816 8.26928 17.7268 7.7241 17.7288 7.05096V6.56283C20.3342 6.4408 22 6.4408 22 6.4408C22 6.4408 23.6658 6.4408 26.2712 6.56283V7.05096C26.2732 7.7241 26.8184 8.26928 27.4915 8.27129H28.1017C28.7748 8.26928 29.32 7.7241 29.322 7.05096V6.73978C29.8223 6.77639 30.3349 6.813 30.8657 6.85571C32.5017 6.97673 34.0024 7.80851 34.9721 9.13163C34.9905 9.15951 35.0109 9.18602 35.0331 9.21095C35.7061 10.1912 36.0501 11.36 36.0155 12.5486Z" fill="#F3D55B"/>
<path d="M37.9802 34.5511C36.8209 37.5653 35.1796 39.6948 34.2582 39.3531C33.3125 39.0053 33.4833 36.1558 34.6487 32.9952C35.8141 29.8345 37.5165 27.5586 38.4623 27.9003H38.4684C39.4507 28.2664 39.2372 31.2684 37.9802 34.5511Z" fill="#7F8C8D"/>
<path d="M38.4623 27.9003C37.5165 27.5586 35.808 29.8406 34.6487 32.9951C33.4894 36.1497 33.3125 39.0053 34.2582 39.3531L29.2854 37.5226H29.2793C29.2063 37.4961 29.1398 37.4545 29.084 37.4005C28.3335 36.7416 28.4067 34.0507 29.4867 31.128C30.646 27.9674 32.3728 25.6548 33.3186 26.0026L34.0813 26.2833L38.4623 27.9003Z" fill="#464F5D"/>
<path d="M22 11.9323C19.7183 11.9484 17.4391 11.7761 15.1857 11.4173C14.8534 11.3607 14.63 11.0455 14.6866 10.7132C14.7432 10.3809 15.0584 10.1575 15.3907 10.2141C17.5763 10.5616 19.787 10.7282 22 10.712C24.2131 10.7282 26.4237 10.5616 28.6093 10.2141C28.8243 10.1775 29.0424 10.2583 29.1816 10.4261C29.3208 10.594 29.3599 10.8233 29.2841 11.0278C29.2084 11.2322 29.0293 11.3807 28.8143 11.4173C26.5609 11.7761 24.2818 11.9484 22 11.9323Z" fill="#F9EAB0"/>
<path d="M16.5085 4.00012H15.8983C15.2243 4.00012 14.678 4.54648 14.678 5.22045V7.05095C14.678 7.72492 15.2243 8.27128 15.8983 8.27128H16.5085C17.1824 8.27128 17.7288 7.72492 17.7288 7.05095V5.22045C17.7288 4.54648 17.1824 4.00012 16.5085 4.00012Z" fill="#B19046"/>
<path d="M28.1017 4.00012H27.4915C26.8175 4.00012 26.2712 4.54648 26.2712 5.22045V7.05095C26.2712 7.72492 26.8175 8.27128 27.4915 8.27128H28.1017C28.7756 8.27128 29.322 7.72492 29.322 7.05095V5.22045C29.322 4.54648 28.7756 4.00012 28.1017 4.00012Z" fill="#B19046"/>
<path d="M8.44822 19.5166C8.34794 19.5539 8.24341 19.5785 8.13704 19.5898L6.31264 19.7729C5.64215 19.8366 5.04682 19.345 4.98248 18.6746L4.92147 18.0705C4.8891 17.7485 4.98598 17.4268 5.19081 17.1762C5.39564 16.9256 5.69163 16.7666 6.01366 16.7343L7.83806 16.5573C7.95016 16.5448 8.06357 16.551 8.17365 16.5756C8.24687 17.5153 8.33229 18.5099 8.44822 19.5166Z" fill="#B19046"/>
<path d="M39.0785 18.0705L39.0175 18.6746C38.9532 19.345 38.3578 19.8366 37.6873 19.7729L35.8629 19.5898C35.7566 19.5785 35.652 19.5539 35.5518 19.5166C35.6677 18.5099 35.7531 17.5153 35.8263 16.5756C35.9364 16.551 36.0498 16.5448 36.1619 16.5573L37.9863 16.7343C38.3084 16.7666 38.6043 16.9256 38.8092 17.1762C39.014 17.4268 39.1109 17.7485 39.0785 18.0705Z" fill="#B19046"/>
<path d="M33.4815 14.8885C33.3991 16.4933 33.2728 18.0059 33.1081 19.3812C32.8506 21.5774 31.1915 23.3493 29.0169 23.7506H29.0108C27.6995 23.9894 26.3631 23.4876 25.5329 22.4448H25.5268C24.8414 21.5849 23.8014 21.0842 22.7017 21.0848H21.2983C20.1986 21.0844 19.1586 21.5853 18.4733 22.4454H18.4672C17.637 23.4883 16.3006 23.99 14.9892 23.7512C12.813 23.3514 11.1522 21.5788 10.895 19.3812C10.7309 18.0083 10.6046 16.4963 10.5204 14.8897C10.4998 14.5125 10.6551 14.1471 10.9409 13.9001C11.2268 13.653 11.6109 13.5523 11.9811 13.6273C13.847 14.0227 16.9314 14.3729 22 14.3729C27.0687 14.3729 30.1549 14.0221 32.0214 13.6267C32.3914 13.552 32.7752 13.6527 33.0609 13.8996C33.3465 14.1464 33.5018 14.5115 33.4815 14.8885Z" fill="#393F4A"/>
<path d="M11.0902 20.8773C10.8474 20.8772 10.6277 20.7331 10.5309 20.5103C10.4341 20.2876 10.4786 20.0286 10.6442 19.851L16.2883 13.7982C16.5208 13.566 16.8955 13.5598 17.1357 13.784C17.3759 14.0083 17.3953 14.3825 17.1797 14.6304L11.5357 20.6833C11.4205 20.8068 11.2592 20.8771 11.0902 20.8773Z" fill="white"/>
<path d="M12.5607 23.1777C12.3178 23.1776 12.0981 23.0335 12.0013 22.8107C11.9045 22.588 11.949 22.329 12.1147 22.1514L19.7784 13.9385C20.01 13.7013 20.3887 13.6925 20.6312 13.9187C20.8736 14.1449 20.8911 14.5233 20.6704 14.7708L13.0067 22.9836C12.8914 23.1073 12.7299 23.1776 12.5607 23.1777Z" fill="white"/>
<path d="M15.6396 24.42C15.3851 24.4199 15.131 24.397 14.8806 24.3517C12.4368 23.9114 10.5708 21.9209 10.2891 19.4538C10.1225 18.0602 9.99558 16.5354 9.91077 14.9215C9.87909 14.3508 10.1167 13.7982 10.5527 13.4285C10.9803 13.0602 11.5553 12.9128 12.1074 13.03C15.3733 13.5952 18.6865 13.8406 22 13.7628C25.3141 13.8408 28.6279 13.5956 31.8944 13.0306C32.4458 12.9129 33.0205 13.0596 33.4479 13.4272C33.8842 13.7976 34.1221 14.3507 34.091 14.9221C34.0081 16.5336 33.8811 18.059 33.714 19.4563C33.4317 21.9221 31.5672 23.9118 29.1249 24.3535C27.6172 24.6304 26.0778 24.0688 25.1027 22.886C25.0834 22.8669 25.0655 22.8465 25.049 22.825C24.4813 22.1082 23.616 21.6916 22.7017 21.695H21.2983C20.3833 21.691 19.5171 22.1076 18.9492 22.825C18.9322 22.8465 18.9138 22.8669 18.8942 22.886C18.0926 23.8574 16.899 24.42 15.6396 24.42ZM25.9575 22.0074C25.9763 22.0257 25.994 22.045 26.0106 22.0654C26.6997 22.9339 27.8118 23.3513 28.9022 23.1508C30.8191 22.8045 32.2822 21.2423 32.5022 19.3068C32.6663 17.9364 32.7908 16.439 32.8725 14.8526C32.8834 14.6606 32.8031 14.4747 32.6559 14.351C32.5166 14.2296 32.3284 14.1808 32.1477 14.2192C28.7981 14.8045 25.3994 15.0603 22 14.9832C18.6016 15.0616 15.2037 14.8074 11.8548 14.2241C11.6738 14.1858 11.4854 14.2346 11.3459 14.3559C11.1987 14.4799 11.1187 14.666 11.1299 14.8581C11.2129 16.4445 11.3373 17.9425 11.5009 19.3086C11.7199 21.2446 13.1834 22.8073 15.1008 23.1527C16.1912 23.3525 17.3029 22.9351 17.9924 22.0672C18.0092 22.0457 18.0273 22.0253 18.0467 22.0062C18.8459 21.0336 20.0395 20.4714 21.2983 20.4747H22.7017C23.9621 20.4705 25.1576 21.0333 25.9575 22.0074Z" fill="#B19046"/>
<path d="M22 25.3657C24.3857 25.2187 26.8813 26.7355 26.8813 29.9041C26.8813 30.5216 25.6183 36.4787 25.6183 36.5397C25.0813 38.6868 23.4705 39.5002 22 39.3782C20.5295 39.5002 18.9186 38.6868 18.3817 36.5397C18.3817 36.4787 17.1187 30.5216 17.1187 29.9041C17.1187 26.7355 19.6142 25.2187 22 25.3657Z" fill="#464F5D"/>
<path d="M22.2734 40C22.1806 40 22.0903 39.9969 22 39.9902C20.4532 40.1006 18.4434 39.3013 17.7899 36.6886C17.7844 36.6686 17.7803 36.6482 17.7777 36.6276C17.763 36.5476 17.6965 36.2243 17.6013 35.7605C16.8045 31.8774 16.5085 30.2916 16.5085 29.9042C16.4624 28.4878 17.0163 27.1178 18.0339 26.1315C19.1127 25.1506 20.5455 24.6533 22 24.755C23.4544 24.6543 24.8868 25.1514 25.9661 26.1315C26.9837 27.1178 27.5376 28.4878 27.4915 29.9042C27.4915 30.2916 27.1956 31.8774 26.3987 35.7575C26.3035 36.2212 26.237 36.5446 26.2224 36.6245C26.2197 36.6451 26.2156 36.6655 26.2102 36.6855C25.5945 39.1488 23.775 40 22.2734 40ZM22 38.7674C22.0169 38.7665 22.0338 38.7665 22.0507 38.7674C23.1776 38.8602 24.5456 38.2884 25.0234 36.4024C25.0435 36.2889 25.0911 36.0565 25.2064 35.5097C25.4682 34.2351 26.2645 30.3569 26.2742 29.8999C26.3158 28.8212 25.9004 27.775 25.1302 27.0187C24.2884 26.2595 23.1708 25.8809 22.0409 25.9722C22.0157 25.9741 21.9904 25.9741 21.9652 25.9722C20.8353 25.8809 19.7178 26.2595 18.876 27.0187C18.1036 27.7756 17.687 28.8236 17.7289 29.9042C17.7386 30.3593 18.5349 34.2363 18.7966 35.5122C18.9089 36.0613 18.9565 36.2914 18.9797 36.4049C19.4575 38.2915 20.8316 38.8638 21.9524 38.7699C21.9682 38.7682 21.9841 38.7674 22 38.7674Z" fill="#95A5A5"/>
<path d="M22 32.678C23.3479 32.678 24.4407 31.5852 24.4407 30.2373C24.4407 28.8894 23.3479 27.7966 22 27.7966C20.652 27.7966 19.5593 28.8894 19.5593 30.2373C19.5593 31.5852 20.652 32.678 22 32.678Z" fill="#BDC3C7"/>
<path d="M22 36.9491C22.674 36.9491 23.2203 36.4027 23.2203 35.7288C23.2203 35.0548 22.674 34.5084 22 34.5084C21.326 34.5084 20.7797 35.0548 20.7797 35.7288C20.7797 36.4027 21.326 36.9491 22 36.9491Z" fill="#BDC3C7"/>
</svg>
