<svg width="44" height="44" viewBox="0 0 44 44" fill="none" xmlns="http://www.w3.org/2000/svg">
<path d="M13.2548 39.15C12.4488 39.15 11.7836 38.6499 11.5593 37.8762L10.1078 32.8623C10.0217 32.5656 10.1925 32.2558 10.4892 32.17C10.7854 32.0842 11.0957 32.2547 11.1815 32.5514L12.633 37.5653C12.7327 37.9094 13.0197 38.032 13.2548 38.032C13.4897 38.032 13.7766 37.9094 13.8764 37.565L15.3279 32.5512C15.4137 32.2547 15.7237 32.084 16.0202 32.1698C16.3169 32.2556 16.4877 32.5656 16.4016 32.8621L14.9501 37.876C14.7258 38.6499 14.0605 39.15 13.2548 39.15Z" fill="#E23333"/>
<path d="M5.34004 25.4416V28.9377L7.88919 31.4869H36.6595L39.3909 28.7555V19.3231H5.19434" fill="#F49642"/>
<path d="M11.3127 9.92725H16.4597V13.1322H11.3127V9.92725Z" fill="#305967"/>
<path d="M11.3127 9.92725H13.4236V13.1322H11.3127V9.92725Z" fill="#1C414B"/>
<path d="M34.4519 33.2672H10.0642C6.72049 33.2672 4 30.6829 4 27.5064V10.7608C4 7.58425 6.72049 5 10.0642 5H34.4519C37.7956 5 40.5161 7.58425 40.5161 10.7608V27.5064C40.5161 30.6829 37.7956 33.2672 34.4519 33.2672ZM10.0642 7.36918C8.02682 7.36918 6.36946 8.89087 6.36946 10.7608V27.5064C6.36946 29.3766 8.02682 30.898 10.0642 30.898H34.4519C36.4893 30.898 38.1467 29.3766 38.1467 27.5064V10.7608C38.1467 8.89087 36.4893 7.36918 34.4519 7.36918H10.0642Z" fill="#F95858"/>
<path d="M38.1048 21.6784H25.9728C24.1087 21.6784 22.4427 22.8421 21.8008 24.5922C21.1592 26.3426 19.4932 27.5063 17.6291 27.5063H6.36938V15.1715H38.1048V21.6784Z" fill="#305967"/>
<path d="M37.3619 15.1713H7.15405C7.15405 14.3642 7.48112 13.634 8.01046 13.1058C8.53867 12.5765 9.26971 12.2494 10.0768 12.2494H34.4397C36.0533 12.2494 37.3619 13.558 37.3619 15.1713Z" fill="#F49642"/>
<path d="M37.3619 15.1713H11.7186C11.7186 14.3642 12.0456 13.634 12.575 13.1058C13.104 12.5765 13.8342 12.2494 14.6413 12.2494H34.4397C36.0534 12.2494 37.3619 13.558 37.3619 15.1713Z" fill="#F7C359"/>
<path d="M13.3821 22.5337C13.3821 23.8562 12.3101 24.9282 10.9876 24.9282C9.66511 24.9282 8.59308 23.8562 8.59308 22.5337C8.59308 21.2112 9.66511 20.1392 10.9876 20.1392C12.3101 20.1392 13.3821 21.2112 13.3821 22.5337Z" fill="#8DB0C6"/>
<path d="M10.9876 25.4871C9.35924 25.4871 8.03424 24.1621 8.03424 22.5337C8.03424 20.9051 9.35924 19.5801 10.9876 19.5801C12.6163 19.5801 13.941 20.9051 13.941 22.5337C13.941 24.1621 12.6163 25.4871 10.9876 25.4871ZM10.9876 20.6981C9.9755 20.6981 9.15197 21.5216 9.15197 22.5337C9.15197 23.5459 9.9755 24.3694 10.9876 24.3694C11.9998 24.3694 12.8233 23.5459 12.8233 22.5337C12.8233 21.5216 11.9998 20.6981 10.9876 20.6981Z" fill="#F7C359"/>
<path d="M10.9877 22.9808C10.7409 22.9808 10.5406 22.7805 10.5406 22.5337V21.4213C10.5406 21.1744 10.7409 20.9741 10.9877 20.9741C11.2348 20.9741 11.4349 21.1744 11.4349 21.4213V22.5337C11.4349 22.7805 11.2348 22.9808 10.9877 22.9808Z" fill="#1C414B"/>
<path d="M19.8893 22.5337C19.8893 23.8562 18.8172 24.9282 17.4948 24.9282C16.1723 24.9282 15.1002 23.8562 15.1002 22.5337C15.1002 21.2112 16.1723 20.1392 17.4948 20.1392C18.8172 20.1392 19.8893 21.2112 19.8893 22.5337Z" fill="#8DB0C6"/>
<path d="M17.4947 25.4871C15.866 25.4871 14.541 24.1621 14.541 22.5337C14.541 20.9051 15.866 19.5801 17.4947 19.5801C19.1234 19.5801 20.4481 20.9051 20.4481 22.5337C20.4481 24.1621 19.1231 25.4871 17.4947 25.4871ZM17.4947 20.6981C16.4825 20.6981 15.659 21.5216 15.659 22.5337C15.659 23.5459 16.4825 24.3694 17.4947 24.3694C18.5068 24.3694 19.3304 23.5459 19.3304 22.5337C19.3301 21.5216 18.5068 20.6981 17.4947 20.6981Z" fill="#F7C359"/>
<path d="M17.4946 22.9808C17.2477 22.9808 17.0474 22.7805 17.0474 22.5337V21.4213C17.0474 21.1744 17.2477 20.9741 17.4946 20.9741C17.7414 20.9741 17.9417 21.1744 17.9417 21.4213V22.5337C17.9417 22.7805 17.7414 22.9808 17.4946 22.9808Z" fill="#1C414B"/>
<path d="M29.0844 27.4587V21.6779H32.3865V26.6344" fill="#E6E6E6"/>
<path d="M27.2394 24.9563H24.2288C23.9202 24.9563 23.67 24.7062 23.67 24.3975C23.67 24.0888 23.9202 23.8386 24.2288 23.8386H27.2394C27.548 23.8386 27.7982 24.0888 27.7982 24.3975C27.7982 24.7062 27.548 24.9563 27.2394 24.9563Z" fill="#305967"/>
<path d="M27.2394 26.8017H24.2288C23.9202 26.8017 23.67 26.5513 23.67 26.2426C23.67 25.9339 23.9202 25.6837 24.2288 25.6837H27.2394C27.548 25.6837 27.7982 25.9339 27.7982 26.2426C27.7982 26.5513 27.548 26.8017 27.2394 26.8017Z" fill="#305967"/>
<path d="M38.4552 32.8906C38.4552 36.3477 35.6528 39.1501 32.196 39.1501C28.7389 39.1501 25.9365 36.3477 25.9365 32.8906C25.9365 29.4337 28.7389 26.6313 32.196 26.6313C35.6528 26.6313 38.4552 29.4337 38.4552 32.8906Z" fill="#305967"/>
<path d="M35.0652 32.8905C35.0652 34.4755 33.7804 35.7601 32.1957 35.7601C30.6108 35.7601 29.3262 34.4755 29.3262 32.8905C29.3262 31.3059 30.6108 30.021 32.1957 30.021C33.7804 30.021 35.0652 31.3059 35.0652 32.8905Z" fill="#E6E6E6"/>
<path d="M32.1957 36.319C30.3052 36.319 28.7673 34.7811 28.7673 32.8906C28.7673 31 30.3052 29.4622 32.1957 29.4622C34.086 29.4622 35.6241 31.0003 35.6241 32.8906C35.6241 34.7811 34.086 36.319 32.1957 36.319ZM32.1957 30.5802C30.9217 30.5802 29.8851 31.6165 29.8851 32.8906C29.8851 34.1646 30.9217 35.2012 32.1957 35.2012C33.4698 35.2012 34.5061 34.1646 34.5061 32.8906C34.5061 31.6165 33.4698 30.5802 32.1957 30.5802Z" fill="#1C414B"/>
<path d="M6.36938 15.1715H38.1048V17.5995H6.36938V15.1715Z" fill="#F95858"/>
</svg>
