<svg width="44" height="44" viewBox="0 0 44 44" fill="none" xmlns="http://www.w3.org/2000/svg">
<path d="M26.4388 19.8049H18.3799L18.5926 16.7201C18.6379 16.0633 19.1838 15.5537 19.8421 15.5537H24.9765C25.6348 15.5537 26.1809 16.0633 26.2261 16.7201L26.4388 19.8049Z" fill="#219653"/>
<path d="M42.7337 7.22344L41.0211 5.70733C40.7504 5.46765 40.3368 5.49292 40.0974 5.76345C39.8578 6.03407 39.883 6.4476 40.1535 6.68711L41.8662 8.2033C42.7389 8.97571 42.947 10.2676 42.3634 11.2711L36.1138 21.8491H30.486C30.1245 21.8491 29.8317 22.142 29.8317 22.5034C29.8317 22.8648 30.1246 23.1577 30.486 23.1577H35.3406L30.2829 31.7181C30.0991 32.0293 30.2023 32.4305 30.5134 32.6144C30.6179 32.6762 30.7325 32.7055 30.8457 32.7055C31.0695 32.7055 31.2876 32.5906 31.4096 32.3839L43.4925 11.9329C44.3907 10.3885 44.0716 8.40775 42.7337 7.22344Z" fill="#6FCF97"/>
<path d="M27.9469 25.7314H11.9565V31.6233H27.9469V25.7314Z" fill="#219653"/>
<path d="M11.9561 29.2006H15.5391C15.9789 29.2006 16.3355 28.8441 16.3355 28.4043V27.8609C16.3355 27.421 16.692 27.0645 17.1319 27.0645H27.9468V25.7311H11.9561V29.2006Z" fill="#6FCF97"/>
<path d="M30.1923 18.6106H14.7389C11.9551 18.6106 9.6983 20.8673 9.6983 23.6512V27.2099C9.6983 27.6498 10.0549 28.0063 10.4947 28.0063H14.9079C15.3477 28.0063 15.7043 27.6498 15.7043 27.2099V26.6665C15.7043 26.2267 16.0609 25.8702 16.5007 25.8702H30.1923C30.8089 25.8702 31.3087 25.3704 31.3087 24.7538V19.727C31.3087 19.1104 30.8089 18.6106 30.1923 18.6106Z" fill="#27AE60"/>
<path d="M35.6641 30.7992H4.64923V36.6481H35.6641V30.7992Z" fill="#27AE60"/>
<path d="M35.6641 34.5529H4.64923V36.6485H35.6641V34.5529Z" fill="#219653"/>
<path d="M4.73344 38.457C7.34764 38.457 9.46688 36.3378 9.46688 33.7235C9.46688 31.1093 7.34764 28.9901 4.73344 28.9901C2.11923 28.9901 0 31.1093 0 33.7235C0 36.3378 2.11923 38.457 4.73344 38.457Z" fill="#808080"/>
<path d="M35.5799 38.457C38.1941 38.457 40.3133 36.3378 40.3133 33.7235C40.3133 31.1093 38.1941 28.9901 35.5799 28.9901C32.9657 28.9901 30.8464 31.1093 30.8464 33.7235C30.8464 36.3378 32.9657 38.457 35.5799 38.457Z" fill="#808080"/>
<path d="M19.4166 20.1354C19.0551 20.1354 18.7623 20.4283 18.7623 20.7897V23.6345C18.7623 23.9959 19.0552 24.2888 19.4166 24.2888C19.778 24.2888 20.0709 23.9959 20.0709 23.6345V20.7897C20.071 20.4283 19.778 20.1354 19.4166 20.1354Z" fill="#219653"/>
<path d="M22.26 20.1354C21.8986 20.1354 21.6057 20.4283 21.6057 20.7897V23.6345C21.6057 23.9959 21.8987 24.2888 22.26 24.2888C22.6215 24.2888 22.9144 23.9959 22.9144 23.6345V20.7897C22.9145 20.4283 22.6215 20.1354 22.26 20.1354Z" fill="#219653"/>
<path d="M25.1034 20.1354C24.742 20.1354 24.4491 20.4283 24.4491 20.7897V23.6345C24.4491 23.9959 24.7421 24.2888 25.1034 24.2888C25.4649 24.2888 25.7578 23.9959 25.7578 23.6345V20.7897C25.7578 20.4283 25.4649 20.1354 25.1034 20.1354Z" fill="#219653"/>
<path d="M27.9469 20.1354C27.5854 20.1354 27.2925 20.4283 27.2925 20.7897V23.6345C27.2925 23.9959 27.5855 24.2888 27.9469 24.2888C28.3083 24.2888 28.6012 23.9959 28.6012 23.6345V20.7897C28.6013 20.4283 28.3083 20.1354 27.9469 20.1354Z" fill="#219653"/>
<path d="M4.73345 35.8246C5.8938 35.8246 6.83445 34.8839 6.83445 33.7236C6.83445 32.5632 5.8938 31.6226 4.73345 31.6226C3.5731 31.6226 2.63245 32.5632 2.63245 33.7236C2.63245 34.8839 3.5731 35.8246 4.73345 35.8246Z" fill="#4D4D4D"/>
<path d="M35.6641 35.8246C36.8245 35.8246 37.7651 34.8839 37.7651 33.7236C37.7651 32.5632 36.8245 31.6226 35.6641 31.6226C34.5038 31.6226 33.5631 32.5632 33.5631 33.7236C33.5631 34.8839 34.5038 35.8246 35.6641 35.8246Z" fill="#4D4D4D"/>
</svg>
