<svg width="44" height="44" viewBox="0 0 44 44" fill="none" xmlns="http://www.w3.org/2000/svg">
<path d="M30 39.0667C25.0374 39.0667 21 35.0293 21 30.0667C21 29.5144 21.4477 29.0667 22 29.0667C22.5523 29.0667 23 29.5144 23 30.0667C23 33.9265 26.1402 37.0667 30 37.0667C30.5523 37.0667 31 37.5144 31 38.0667C31 38.6189 30.5523 39.0667 30 39.0667Z" fill="#6E6E6E"/>
<path d="M16 13.0667C15.4477 13.0667 15 12.6189 15 12.0667V5.93335C15 5.38108 15.4477 4.93335 16 4.93335C16.5523 4.93335 17 5.38108 17 5.93335V12.0667C17 12.6189 16.5523 13.0667 16 13.0667Z" fill="#D2DCE7"/>
<path d="M28 13.0667C27.4477 13.0667 27 12.6189 27 12.0667V5.93335C27 5.38108 27.4477 4.93335 28 4.93335C28.5523 4.93335 29 5.38108 29 5.93335V12.0667C29 12.6189 28.5523 13.0667 28 13.0667Z" fill="#A1AEBC"/>
<path d="M32 11.0667H12C11.448 11.0667 11 11.5147 11 12.0667V16.0667C11 16.6187 11.448 17.0667 12 17.0667H13V22.0667C13 27.0293 17.0373 31.0667 22 31.0667C26.9627 31.0667 31 27.0293 31 22.0667V17.0667H32C32.552 17.0667 33 16.6187 33 16.0667V12.0667C33 11.5147 32.552 11.0667 32 11.0667Z" fill="#FED843"/>
<path d="M33 12.0667V16.0667C33 16.6187 32.552 17.0667 32 17.0667H31V22.0667C31 27.0293 26.9627 31.0667 22 31.0667V11.0667H32C32.552 11.0667 33 11.5147 33 12.0667Z" fill="#FFB64C"/>
<path d="M24.7073 22.774L22.7073 24.774C22.4866 24.9947 22.238 25.0833 22 25.0773C21.236 25.0593 20.5786 24.074 21.2926 23.3593L22 22.6527L22.312 22.3407L22 22.1847L19.5526 20.9613C18.9433 20.656 18.8106 19.842 19.2926 19.3593L21.2926 17.3593C21.514 17.138 21.762 17.048 22 17.0533C22.766 17.0667 23.422 18.0593 22.7073 18.774L22 19.4807L21.688 19.7927L22 19.9487L24.4473 21.172C25.0566 21.4773 25.1893 22.2913 24.7073 22.774Z" fill="#6E6E6E"/>
<path d="M22.7073 18.774L22 19.4807V17.0533C22.766 17.0667 23.422 18.0593 22.7073 18.774Z" fill="#444444"/>
<path d="M24.7073 22.7741L22.7073 24.7741C22.4867 24.9947 22.238 25.0834 22 25.0774V22.6527L22.312 22.3407L22 22.1847V19.9487L24.4473 21.1721C25.0567 21.4774 25.1893 22.2914 24.7073 22.7741Z" fill="#444444"/>
</svg>
