<svg width="44" height="44" viewBox="0 0 44 44" fill="none" xmlns="http://www.w3.org/2000/svg">
<path d="M5.40024 38.5997C5.40024 38.5997 2.2497 30.3483 5.40024 27.1978L11.7764 20.8217L23.1783 32.2236L16.8022 38.5997C13.6516 41.7503 5.40024 38.5997 5.40024 38.5997Z" fill="#E8EAE9"/>
<path d="M18.9571 27.495L28.5576 17.8945L26.1177 15.4546L16.5172 25.0551L18.9571 27.495Z" fill="#FFD15C"/>
<path d="M17.8525 23.7472L15.7521 25.8476C13.9518 27.6479 12.5265 29.8232 11.6263 32.3737C14.1768 31.4735 16.3522 30.0483 18.1525 28.248L20.2529 26.1476L17.8525 23.7472Z" fill="#CED6E0"/>
<path d="M39.6062 12.7953C40.1313 12.2702 40.1313 11.5201 39.6062 10.995C39.1561 10.5449 38.481 10.4699 38.0309 10.845L33.1551 5.96911C33.4552 5.44399 33.4552 4.76888 33.0051 4.39384C32.48 3.86872 31.7299 3.86872 31.2048 4.39384C28.5793 7.01927 27.4542 10.3199 28.1293 12.7953L25.7289 15.1207L28.8794 18.2713L31.2798 15.8709C33.6801 16.5459 36.9807 15.4207 39.6062 12.7953ZM31.0547 12.9453C30.2296 12.1202 30.3046 10.3948 31.2797 8.51957L35.4804 12.7203C33.6052 13.6955 31.8049 13.7704 31.0547 12.9453Z" fill="#F2994A"/>
</svg>
