<svg width="44" height="44" viewBox="0 0 44 44" fill="none" xmlns="http://www.w3.org/2000/svg">
<path d="M20.9388 19.1548L21.6456 17.9763L26.2264 20.7237L25.5196 21.9021L20.9388 19.1548Z" fill="#4F5761"/>
<path d="M19.9709 20.373L21.3445 16.9373L22.6205 17.4475L21.2469 20.8832L19.9709 20.373Z" fill="#68737F"/>
<path d="M33 12.7294H31.625V11.5695C31.6231 10.8624 31.7614 10.162 32.032 9.50874C32.3026 8.8555 32.7 8.26241 33.2014 7.76379L34.1737 8.73613C33.8004 9.10734 33.5045 9.54889 33.3031 10.0352C33.1016 10.5216 32.9986 11.043 33 11.5695V12.7294Z" fill="#4F5761"/>
<path d="M30.9375 11.6875H33.6875V19.25H30.9375V11.6875Z" fill="#68737F"/>
<path d="M8.25 8.25H11V18.9062H8.25V8.25Z" fill="#68737F"/>
<path d="M25.1167 21.3125L23.375 8.25H26.125L27.5 19.25L25.1167 21.3125Z" fill="#D4E4F0"/>
<path d="M13.0625 19.9375V15.125H15.8125L17.1875 20.625L13.0625 19.9375Z" fill="#68737F"/>
<path d="M19.9375 30.25H8.25V19.9375H14.8672L19.9375 26.8125V30.25Z" fill="#EB5757"/>
<path d="M41.9375 19.25L41.25 30.25H19.2784L20.6534 25.4375H24.75V18.5625L41.9375 19.25Z" fill="#E04446"/>
<path d="M19.2784 25.4375H24.75V30.25H19.2784V25.4375Z" fill="#EB5757"/>
<path d="M22 30.25H19.25C19.2496 28.5605 18.8046 26.9009 17.9597 25.4378C17.1148 23.9748 15.8997 22.7598 14.4366 21.915C12.9735 21.0702 11.3139 20.6253 9.62438 20.625C7.93489 20.6247 6.27507 21.069 4.81165 21.9132L3.43665 19.5319C5.31809 18.4462 7.45214 17.8747 9.62437 17.875C11.7966 17.8753 13.9305 18.4472 15.8117 19.5334C17.6929 20.6195 19.2551 22.1816 20.3413 24.0628C21.4276 25.9439 21.9996 28.0778 22 30.25Z" fill="#E04446"/>
<path d="M26.125 24.75H22C21.8177 24.75 21.6428 24.8224 21.5139 24.9514C21.3849 25.0803 21.3125 25.2552 21.3125 25.4375V33.6875C21.3125 33.8698 21.3849 34.0447 21.5139 34.1736C21.6428 34.3026 21.8177 34.375 22 34.375H26.125C26.3073 34.375 26.4822 34.3026 26.6111 34.1736C26.7401 34.0447 26.8125 33.8698 26.8125 33.6875V25.4375C26.8125 25.2552 26.7401 25.0803 26.6111 24.9514C26.4822 24.8224 26.3073 24.75 26.125 24.75ZM25.4375 26.125V27.5H22.6875V26.125H25.4375ZM25.4375 28.875V30.25H22.6875V28.875H25.4375ZM22.6875 33V31.625H25.4375V33H22.6875Z" fill="#68737F"/>
<path d="M27.5 20.625H30.25V22H27.5V20.625Z" fill="#EB5757"/>
<path d="M27.5 22.6875H30.25V24.0625H27.5V22.6875Z" fill="#EB5757"/>
<path d="M27.5 24.75H30.25V26.125H27.5V24.75Z" fill="#EB5757"/>
<path d="M41.7656 22L41.3359 28.875H37.125C36.3957 28.8749 35.6963 28.5851 35.1806 28.0694C34.6649 27.5537 34.3751 26.8543 34.375 26.125V24.75C34.3751 24.0207 34.6649 23.3213 35.1806 22.8056C35.6963 22.2899 36.3957 22.0001 37.125 22H41.7656Z" fill="#68737F"/>
<path d="M26.8125 5.5H8.25C7.49061 5.5 6.875 6.11561 6.875 6.875C6.875 7.63439 7.49061 8.25 8.25 8.25H26.8125C27.5719 8.25 28.1875 7.63439 28.1875 6.875C28.1875 6.11561 27.5719 5.5 26.8125 5.5Z" fill="#E04446"/>
<path d="M41.6797 23.375L41.5938 24.75H37.125V23.375H41.6797Z" fill="#4F5761"/>
<path d="M41.5078 26.125L41.4219 27.5H37.125V26.125H41.5078Z" fill="#4F5761"/>
<path d="M9.625 37.8125C13.8017 37.8125 17.1875 34.4267 17.1875 30.25C17.1875 26.0733 13.8017 22.6875 9.625 22.6875C5.44835 22.6875 2.0625 26.0733 2.0625 30.25C2.0625 34.4267 5.44835 37.8125 9.625 37.8125Z" fill="#68737F"/>
<path d="M9.625 33.6875C11.5235 33.6875 13.0625 32.1485 13.0625 30.25C13.0625 28.3515 11.5235 26.8125 9.625 26.8125C7.72652 26.8125 6.1875 28.3515 6.1875 30.25C6.1875 32.1485 7.72652 33.6875 9.625 33.6875Z" fill="#FFEFD6"/>
<path d="M9.625 29.5625C10.0047 29.5625 10.3125 29.2547 10.3125 28.875C10.3125 28.4953 10.0047 28.1875 9.625 28.1875C9.2453 28.1875 8.9375 28.4953 8.9375 28.875C8.9375 29.2547 9.2453 29.5625 9.625 29.5625Z" fill="#68737F"/>
<path d="M11 30.9375C11.3797 30.9375 11.6875 30.6297 11.6875 30.25C11.6875 29.8703 11.3797 29.5625 11 29.5625C10.6203 29.5625 10.3125 29.8703 10.3125 30.25C10.3125 30.6297 10.6203 30.9375 11 30.9375Z" fill="#68737F"/>
<path d="M9.625 32.3125C10.0047 32.3125 10.3125 32.0047 10.3125 31.625C10.3125 31.2453 10.0047 30.9375 9.625 30.9375C9.2453 30.9375 8.9375 31.2453 8.9375 31.625C8.9375 32.0047 9.2453 32.3125 9.625 32.3125Z" fill="#68737F"/>
<path d="M8.25 30.9375C8.6297 30.9375 8.9375 30.6297 8.9375 30.25C8.9375 29.8703 8.6297 29.5625 8.25 29.5625C7.8703 29.5625 7.5625 29.8703 7.5625 30.25C7.5625 30.6297 7.8703 30.9375 8.25 30.9375Z" fill="#68737F"/>
<path d="M9.625 22C7.99331 22 6.39825 22.4839 5.04155 23.3904C3.68484 24.2969 2.62742 25.5854 2.003 27.0929C1.37857 28.6004 1.2152 30.2591 1.53353 31.8595C1.85185 33.4598 2.63759 34.9298 3.79137 36.0836C4.94516 37.2374 6.41517 38.0231 8.01551 38.3415C9.61585 38.6598 11.2747 38.4964 12.7821 37.872C14.2896 37.2476 15.5781 36.1902 16.4846 34.8335C17.3911 33.4767 17.875 31.8817 17.875 30.25C17.8725 28.0627 17.0025 25.9657 15.4559 24.4191C13.9093 22.8725 11.8123 22.0025 9.625 22ZM13.6385 35.8267L12.9704 34.6694L11.7797 35.3569L12.4488 36.5158C11.7727 36.8224 11.0511 37.0166 10.3125 37.0905V35.75H8.9375V37.0905C8.19887 37.0166 7.47728 36.8224 6.80124 36.5158L7.47036 35.3569L6.27965 34.6694L5.6115 35.8267C5.01017 35.3926 4.48241 34.8648 4.04834 34.2635L5.2056 33.5953L4.5181 32.4046L3.35916 33.0738C3.05256 32.3977 2.85844 31.6761 2.78445 30.9375H4.125V29.5625H2.78445C2.85844 28.8239 3.05256 28.1023 3.35916 27.4262L4.5181 28.0954L5.2056 26.9046L4.04834 26.2365C4.48241 25.6352 5.01017 25.1074 5.6115 24.6733L6.27965 25.8306L7.47036 25.1431L6.80124 23.9842C7.47728 23.6775 8.19887 23.4834 8.9375 23.4095V24.75H10.3125V23.4095C11.0511 23.4834 11.7727 23.6775 12.4488 23.9842L11.7797 25.1431L12.9704 25.8306L13.6385 24.6733C14.2398 25.1074 14.7676 25.6352 15.2017 26.2365L14.0444 26.9046L14.7319 28.0954L15.8908 27.4262C16.1974 28.1023 16.3916 28.8239 16.4656 29.5625H15.125V30.9375H16.4656C16.3916 31.6761 16.1974 32.3977 15.8908 33.0738L14.7319 32.4046L14.0444 33.5953L15.2017 34.2635C14.7676 34.8648 14.2398 35.3926 13.6385 35.8267Z" fill="#4F5761"/>
<path d="M37.125 38.5C39.7829 38.5 41.9375 36.3454 41.9375 33.6875C41.9375 31.0296 39.7829 28.875 37.125 28.875C34.4671 28.875 32.3125 31.0296 32.3125 33.6875C32.3125 36.3454 34.4671 38.5 37.125 38.5Z" fill="#68737F"/>
<path d="M37.125 35.0625C37.8844 35.0625 38.5 34.4469 38.5 33.6875C38.5 32.9281 37.8844 32.3125 37.125 32.3125C36.3656 32.3125 35.75 32.9281 35.75 33.6875C35.75 34.4469 36.3656 35.0625 37.125 35.0625Z" fill="#FFEFD6"/>
<path d="M37.125 28.1875C36.0372 28.1875 34.9738 28.5101 34.0694 29.1144C33.1649 29.7188 32.4599 30.5777 32.0437 31.5827C31.6274 32.5877 31.5185 33.6936 31.7307 34.7605C31.9429 35.8274 32.4667 36.8074 33.2359 37.5766C34.0051 38.3458 34.9851 38.8696 36.052 39.0818C37.1189 39.294 38.2248 39.1851 39.2298 38.7688C40.2348 38.3526 41.0937 37.6476 41.6981 36.7431C42.3024 35.8387 42.625 34.7753 42.625 33.6875C42.6234 32.2293 42.0434 30.8313 41.0123 29.8002C39.9812 28.7691 38.5832 28.1891 37.125 28.1875ZM39.1615 37.2725L38.7116 36.0365L37.4195 36.5068L37.8698 37.7439C37.3775 37.8354 36.8725 37.8354 36.3802 37.7439L36.8305 36.5068L35.5384 36.0365L35.0885 37.2725C34.6538 37.0248 34.2674 36.7006 33.948 36.3156L35.0872 35.6579L34.3997 34.4672L33.2591 35.1257C33.0874 34.6656 32.9997 34.1785 33 33.6875C33 33.6778 33.0007 33.6682 33.0007 33.6584L34.2974 33.8871L34.5362 32.5329L33.2393 32.3042C33.408 31.833 33.6609 31.3965 33.9858 31.0159L34.8307 32.0228L35.8839 31.1389L35.0384 30.1313C35.4697 29.8771 35.9439 29.7041 36.4375 29.6209V30.9375H37.8125V29.6209C38.3061 29.7041 38.7803 29.8771 39.2116 30.1313L38.3661 31.1389L39.4193 32.0228L40.2642 31.0159C40.5891 31.3965 40.842 31.833 41.0107 32.3042L39.7138 32.5329L39.9526 33.8871L41.2493 33.6584C41.2493 33.6682 41.25 33.6778 41.25 33.6875C41.2503 34.1785 41.1626 34.6656 40.9909 35.1257L39.8503 34.4671L39.1628 35.6579L40.302 36.3156C39.9826 36.7006 39.5962 37.0248 39.1615 37.2725Z" fill="#4F5761"/>
</svg>
